<svg width="160" height="115" viewBox="0 0 160 115" fill="none" xmlns="http://www.w3.org/2000/svg">
<g clip-path="url(#clip0_481_12459)">
<path d="M80.9333 34.8052C78.8 32.855 76.6667 31.5048 74.2667 30.6047C71.8667 29.8546 68.5333 28.8045 64.4 27.9043L64.2667 18.3031C66.4 18.9032 67.7333 20.2533 68 22.5036H81.3333C80.5333 18.7531 78.5333 16.0528 75.4667 14.1025C72.5333 12.1523 68.6667 11.1022 64 10.8021V6.75159H59.8667L59.7333 10.8021C54.9333 11.1022 51.0667 12.1523 47.7333 14.1025C44.4 16.0528 42.4 18.9032 41.8667 22.5036C41.4667 25.504 42 28.0544 43.4667 29.8546C45.0667 31.8048 47.0667 33.155 49.3333 34.0551C51.7333 34.9553 54.9333 35.8554 59.0667 36.9055L58.8 49.5072C55.8667 48.607 54.2667 46.3567 54.1333 43.0563H39.2C38.6667 48.157 40.1333 52.5075 43.6 55.808C47.2 59.2584 52.2667 61.3587 58.8 61.8088V70.5099H65.0667L64.9333 62.1088C68.2667 61.9588 71.2 61.3587 73.7333 60.4586L67.6 48.7571C66.8 49.2071 65.8667 49.6572 64.8 49.8072L64.6667 43.2063L63.8667 41.7061H64.6667V38.4057C66.4 39.0058 67.7333 39.7559 68.6667 40.506C69.2 40.956 69.4667 41.4061 69.7333 42.0062L84.9333 42.9063C84.2667 39.4558 82.9333 36.7555 80.9333 34.8052ZM59.4667 26.5542C58 25.9541 56.9333 25.354 56.2667 24.6039C55.4667 23.8538 55.2 23.1037 55.2 22.0536C55.2 20.8534 55.7333 19.9533 56.4 19.3532C57.2 18.7531 58.2667 18.3031 59.6 18.1531L59.4667 26.5542Z" fill="white"/>
<path d="M113.733 61.9588L98.4 60.9087C98.6667 61.5088 98.8 62.1088 98.8 62.7089C98.9333 64.2091 98.4 65.5593 97.4667 66.6094C97.0667 67.0595 96.6667 67.3595 96.2667 67.5096L102.4 79.2111C103.467 78.761 104.533 78.311 105.6 77.7109C108.8 75.9106 111.067 73.5103 112.4 70.66C113.733 67.9596 114.133 65.1092 113.733 62.1089C113.867 62.1089 113.867 62.1088 113.733 61.9588Z" fill="white"/>
<path d="M159.067 51.6075L133.333 56.2581C133.067 56.2581 132.933 56.5582 133.067 56.7082C133.067 57.0082 133.333 57.1583 133.467 57.1583L159.333 53.2578C159.733 53.1077 160 52.8077 160 52.2076C159.867 51.9076 159.467 51.6075 159.067 51.6075Z" fill="#112E45"/>
<path d="M156.667 58.6584L142.933 58.9584C142.667 58.9584 142.533 59.1084 142.533 59.4084C142.533 59.7084 142.667 59.8585 142.933 59.8585L156.667 60.4584C157.067 60.4584 157.467 60.0085 157.467 59.5585C157.467 58.9585 157.067 58.6584 156.667 58.6584Z" fill="#112E45"/>
<path d="M96.4 92.2628C96.2667 92.1128 96.1333 91.9628 95.8666 91.9628C95.6 92.1128 95.6 92.2628 95.6 92.5628L99.8667 106.515C100 106.965 100.533 107.115 100.933 106.965C101.333 106.815 101.467 106.215 101.333 105.915L96.4 92.2628Z" fill="#112E45"/>
<path d="M92.2666 96.0133C92 96.0133 91.8666 96.1633 91.7333 96.3133L90.4 103.364C90.4 103.364 90.4 103.364 90.4 103.514C90.4 103.964 90.6666 104.414 91.0666 104.414C91.4666 104.414 91.8666 104.114 91.8666 103.664L92.4 96.4634C92.5333 96.1633 92.4 96.0133 92.2666 96.0133Z" fill="#112E45"/>
<path d="M85.3333 81.0113C85.0667 81.0113 84.8 81.1613 84.5333 81.1613L83.8667 93.0128L83.0667 81.4613C82.5333 81.6114 82 81.7614 81.4667 81.7614C82 81.6114 82.5333 81.4614 83.0667 81.3113C75.3333 83.1116 67.4667 83.7116 59.6 83.2616C50.9333 82.8115 42.4 81.1613 34.2667 78.0109C30.1333 76.5107 26.2667 74.4104 22.5333 72.1601C18.8 69.7598 15.3333 66.9095 12.1333 63.759C9.06666 60.4586 6.39999 56.7081 4.53333 52.5076C2.66666 48.307 1.59999 43.6564 1.59999 39.0058C1.59999 38.5558 1.19999 38.1057 0.799994 38.1057C0.399994 38.1057 -5.87956e-06 38.5558 -5.87956e-06 39.0058V47.1069C-5.87956e-06 49.8072 -0.133339 52.5076 -5.87956e-06 55.2079C0.399994 60.7587 2.26666 66.1594 4.93333 70.81C10.4 80.1112 18.9333 86.562 27.8667 91.0626C36.9333 95.5632 46.5333 97.9635 56.4 98.8636C66.1333 99.7637 76.1333 99.0136 85.7333 96.4633C86.4 96.3133 86.9333 95.5632 86.9333 94.8131C86.9333 90.1625 86.8 85.3619 86.4 80.7113L85.3333 81.0113ZM1.99999 58.9584L1.19999 47.707H2.66666L1.99999 58.9584ZM5.06666 66.9095L4.26666 55.508H5.86666L5.06666 66.9095ZM9.99999 74.1104L9.33333 62.5589H10.9333L9.99999 74.1104ZM16.6667 80.5612L15.8667 69.0097H17.4667L16.6667 80.5612ZM24.8 85.9619L24 74.4104H25.6L24.8 85.9619ZM34.1333 90.4625L33.3333 78.761H34.9333L34.1333 90.4625ZM44.4 93.6129L43.6 81.9114H45.2L44.4 93.6129ZM55.7333 95.4132L54.9333 83.5616H56.5333L55.7333 95.4132ZM66.8 95.7132L66 83.8617H67.6L66.8 95.7132ZM76.4 94.8131L75.6 82.8115H77.2L76.4 94.8131Z" fill="#112E45"/>
<path d="M84.4 81.1613C84.2667 81.1613 84.1333 81.1613 84 81.3113C84.1333 81.3113 84.2667 81.1613 84.4 81.1613Z" fill="#112E45"/>
<path d="M70.9333 56.258C71.0667 56.558 71.4667 56.8581 71.8667 56.8581L85.3333 57.6082L98.8 58.2082C107.733 58.6583 116.667 58.9583 125.6 59.2584C125.867 59.2584 126.133 59.1084 126.133 58.8083C126.4 57.1581 126.533 55.5079 126.667 53.7076C126.667 52.0574 126.667 50.4072 126.533 48.757L126.267 38.8557H126C126 40.806 125.733 42.7562 125.333 44.5565L94.9333 42.1561C84.8 41.406 74.5333 40.6559 64.4 40.0559C64.1333 40.0559 64 40.0559 63.7333 40.2059C63.2 40.5059 63.0667 41.256 63.3333 41.8561L70.9333 56.258ZM120.8 44.5565L120 56.558L119.2 44.5565H120.8ZM112 44.1064L111.2 55.9579L110.4 44.1064H112ZM103.333 43.6563L102.533 55.3579L101.733 43.6563H103.333ZM94.5333 43.2063L93.7333 54.7578L92.9333 43.2063H94.5333ZM85.8667 42.7562L85.0667 54.1577L84.2667 42.7562H85.8667ZM77.0667 42.1561L76.2667 53.5576L75.4667 42.1561H77.0667ZM68.4 41.7061L67.8667 50.1072L67.4667 49.2071L66.9333 41.7061H68.4V41.7061Z" fill="#112E45"/>
<path d="M150 72.6102H150.8L150 83.8617L149.333 73.9604C148.667 75.1605 148 76.5107 147.067 77.7109C146.4 78.611 145.733 79.5111 145.067 80.4112H145.733L144.933 91.8127L144.267 81.3113C142.533 83.4116 140.533 85.3619 138.267 87.1621H138.933L138.133 98.7136L137.467 87.9122C135.2 89.7124 132.667 91.5127 130 93.0129H130.533L129.733 104.564L128.933 93.6129C126.267 95.1131 123.333 96.4633 120.267 97.6635H120.533L120 109.215L119.2 98.1135C117.067 98.8636 114.8 99.6137 112.533 100.214L111.733 98.5636L111.067 108.765L110.267 97.0634H110.933L106.933 89.4124L106.267 99.6137L105.333 87.9122H106L102 80.2612L101.333 90.4625L100.533 78.611H101.067L99.0667 74.8605L97.0667 71.11L96.4 81.4614L95.6 69.4598H96.1333L91.4667 60.6086V74.4104L112.533 114.016C133.867 108.315 149.733 94.6631 152.8 78.0109V64.2091C152.267 67.0595 151.333 69.9099 150 72.6102Z" fill="#112E45"/>
<path d="M126.8 37.8057C126.8 37.0556 126.667 36.1555 126.667 35.4054C126.267 32.255 125.467 29.1046 124.267 26.1042C121.867 20.2534 118 15.3028 113.6 11.2522C104.533 3.15118 93.6 -1.49943 82.5333 -4.04976C76.9333 -5.24992 71.2 -5.84999 65.4667 -6.00001C59.7333 -6.15003 54.1333 -5.69997 48.4 -4.79986C37.2 -2.8496 26.1333 1.20092 16.6667 8.55188C12 12.1523 7.73332 16.6529 4.66665 22.2037C1.73332 27.6044 -1.20075e-05 34.0552 0.266655 40.6561C0.533321 47.1069 2.79999 53.4077 6.26665 58.6584C9.73332 63.9091 14.1333 68.1096 18.9333 71.5601C28.6667 78.461 39.8667 82.3615 51.3333 84.0117C62.6667 85.6619 74.4 85.0618 85.6 82.2115C85.7333 82.2115 85.8667 82.2115 85.8667 82.0614C86.4 81.7614 86.5333 81.0113 86.2667 80.4112L66.8 42.9063C85.8667 44.1065 105.2 45.3067 124.4 46.3568L125.6 45.0066C126.133 44.4065 126.4 43.5064 126.533 42.7563C126.667 42.0062 126.8 41.1061 126.8 40.356C126.933 39.4559 126.8 38.7058 126.8 37.8057ZM125.6 40.206C125.6 40.9561 125.467 41.7062 125.467 42.4563C125.467 42.7563 125.467 43.0564 125.467 43.3564H124.667C104.667 42.0062 84.6667 40.8061 64.5333 39.7559C64.2667 39.7559 64 39.7559 63.8667 39.906C63.2 40.356 63.0667 41.2561 63.4667 41.8562L83.7333 79.8112C73.3333 82.5115 62.4 82.9616 51.7333 81.6114C40.5333 80.1112 29.6 76.3607 20 69.7598C15.3333 66.4594 10.9333 62.2589 7.59999 57.3082C4.13332 52.6576 1.86665 46.8069 1.46665 40.506C1.19999 34.3552 2.66665 28.0544 5.59999 22.8037C8.53332 17.403 12.5333 12.9024 17.2 9.30198C26.4 1.801 37.3333 -2.54956 48.5333 -4.49982C59.7333 -6.45007 71.3333 -6.15003 82.4 -3.74972C93.4667 -1.19939 104.267 3.75125 112.933 11.8523C117.2 15.9028 120.933 20.8535 123.2 26.5542C124.267 29.4046 125.067 32.405 125.333 35.5554C125.467 36.3055 125.467 37.0556 125.467 37.8057C125.6 38.7058 125.6 39.4559 125.6 40.206Z" fill="#112E45"/>
<path d="M122.267 62.2588C117.2 61.9588 112 61.6588 106.933 61.3587C101.867 61.0587 96.8 60.6086 91.6 60.1586H91.4666C91.3333 60.3086 91.2 60.4586 91.3333 60.6086C94 67.8096 97.3333 74.4104 100.667 81.1613C102.4 84.4617 104.133 87.7622 105.867 91.0626C107.6 94.363 109.333 97.6635 111.2 100.964C111.467 101.564 112.133 101.864 112.8 101.714C121.733 99.1636 130.4 95.1131 137.733 88.9623C141.467 85.9619 144.8 82.2114 147.467 78.1609C148.133 77.1108 148.8 76.0606 149.333 74.8605C149.6 74.2604 149.867 73.8103 150.133 73.2103L150.8 71.41C151.333 70.2099 151.6 69.0097 152 67.8096C152.4 66.6094 152.533 65.1092 152.8 63.9091L122.267 62.2588ZM151.6 67.8096C151.2 69.0097 150.8 70.0599 150.267 71.26L149.467 72.9102C149.2 73.5103 148.8 73.9604 148.533 74.4104C148 75.4606 147.333 76.5107 146.533 77.4108C143.733 81.3113 140.4 84.6118 136.667 87.3121C129.6 92.5628 121.6 96.1633 113.333 98.2635C111.867 95.2631 110.267 92.2627 108.8 89.4124C107.067 86.1119 105.333 82.8115 103.467 79.5111C100 73.2103 96.5333 66.9095 92.4 61.0587C97.2 61.2087 102.133 61.5087 106.933 61.6588C112 61.9588 117.2 62.2588 122.267 62.5589L152.8 64.3591C152.267 65.5593 152 66.6094 151.6 67.8096Z" fill="#112E45"/>
<path d="M62.8 2.70114C56.5333 2.85116 50.1333 3.9013 44 5.55151C37.8667 7.35175 31.8667 9.90208 26.5333 13.6526C21.2 17.4031 16.4 22.3537 13.6 28.6545C12.2667 31.8049 11.3333 35.2554 11.3333 38.7058C11.2 42.1563 11.8667 45.7567 13.2 48.9072C15.7333 55.358 20.4 60.6087 25.6 64.5092C30.9333 68.4097 36.8 71.2601 42.9333 73.0603C49.0667 74.8605 55.4667 75.9107 61.8667 75.9107C68.2667 76.0607 74.6667 75.3106 80.9333 73.9604V74.1104C79.6 71.4101 78.1333 68.7097 76.6667 66.0094L72.4 57.9083L63.7333 41.7062L63.6 41.4062H63.8667L89.2 43.0564L101.867 43.8065C106.133 43.9565 110.267 44.4066 114.533 44.4066L114.4 44.5566C115.2 41.2562 115.2 37.8057 114.533 34.5053C114 31.2049 112.667 28.0544 111.067 25.2041C107.733 19.5033 102.933 15.1528 97.7333 11.8523C92.4 8.70192 86.6667 6.30161 80.8 4.80142C74.9333 3.30122 68.8 2.70114 62.8 2.70114ZM62.8 1.35097C68.9333 1.35097 74.9333 2.25109 80.9333 3.75128C86.8 5.4015 92.6667 7.80181 97.8667 11.2523C103.067 14.7027 107.867 19.2033 111.2 25.0541C112.8 27.9044 114 31.2049 114.667 34.5053C115.2 37.8057 115.2 41.4062 114.533 44.7066V44.8566H114.4C110.133 44.2566 106 44.2566 101.733 43.9565L89.0667 43.2064L63.7333 41.8562L63.8667 41.5562L72.4 57.9083L76.6667 66.0094C78.1333 68.7097 79.4667 71.4101 80.9333 74.1104H80.8C68.4 77.7109 55.0667 77.5609 42.5333 73.9604C36.2667 72.1602 30.2667 69.4598 24.8 65.4093C19.4667 61.5088 14.5333 56.1081 11.8667 49.3572C9.20001 42.6063 9.33334 34.5053 12.2667 27.7544C15.0667 21.0035 20 15.7528 25.4667 11.8523C30.9333 7.95183 37.0667 5.10146 43.3333 3.30122C49.8667 1.80103 56.4 1.20095 62.8 1.35097Z" fill="#112E45"/>
</g>
<defs>
<clipPath id="clip0_481_12459">
<rect width="160" height="120.016" fill="white" transform="translate(0 -6)"/>
</clipPath>
</defs>
</svg>
