<svg width="160" height="116" viewBox="0 0 160 116" fill="none" xmlns="http://www.w3.org/2000/svg">
<path d="M118.625 71.5165L112.886 69.3501L93.362 82.6452L85.0847 79.2774L63.022 91.3712L57.2831 89.2048L35.2204 101.299L15.7077 44.7157L8.56328 48.6369L29.5969 109.63L51.6596 97.5363L57.3985 99.7027L79.4612 87.6089L87.7385 90.9767L107.263 77.6815L113.002 79.8479L139.414 66.2009L137.829 61.603L118.625 71.5165ZM35.0586 100.829L30.4822 101.726L34.7001 99.4819L35.1531 100.796L35.0586 100.829ZM33.2439 95.2593L28.573 96.1895L32.7909 93.9456L33.2439 95.2593ZM31.3347 89.723L26.6638 90.6532L30.8817 88.4093L31.3347 89.723ZM29.4255 84.1867L24.66 85.1507L28.9725 82.873L29.4255 84.1867ZM27.5163 78.6504L22.7508 79.6144L27.0633 77.3367L27.5163 78.6504ZM25.6071 73.1141L20.8416 74.0781L25.1541 71.8004L25.6071 73.1141ZM23.6979 67.5778L18.8378 68.5755L23.2449 66.2641L23.6979 67.5778ZM21.7887 62.0415L16.9286 63.0392L21.3357 60.7278L21.7887 62.0415ZM19.9417 56.3776L15.0816 57.3753L19.4887 55.0639L19.9417 56.3776ZM18.0325 50.8413L13.0778 51.8728L17.5795 49.5276L18.0325 50.8413Z" fill="#112E45"/>
<path d="M21.3789 61.0491C23.1006 60.4447 24.754 59.3383 26.0523 57.8306C30.6769 52.6306 31.2365 43.1768 28.5495 35.4939C28.2873 34.7444 28.0252 33.9948 27.6674 33.2789L14.2025 40.5301L21.3789 61.0491V61.0491Z" fill="white"/>
<path d="M34.5334 80.3731C32.4865 80.041 30.6032 80.1774 28.8834 80.7822L36.0811 101.395L49.5315 94.1397C46.4718 87.2205 40.7068 81.4631 34.5334 80.3731Z" fill="white"/>
<path d="M124.473 17.8209C126.52 18.153 128.404 18.0166 130.123 17.4118L122.926 -3.20131L109.344 3.67946C112.341 10.726 118.172 16.6708 124.473 17.8209Z" fill="white"/>
<path d="M137.626 37.1445C135.904 37.7489 134.251 38.8554 132.953 40.3632C128.329 45.5636 127.77 55.0176 130.456 62.7005C130.685 63.3564 130.914 64.0122 131.207 64.5408L144.8 57.6635L137.626 37.1445Z" fill="white"/>
<path d="M145.001 57.9525C136.306 62.6321 127.643 67.4054 118.79 72.2463C118.601 72.3137 118.412 72.3812 118.158 72.2609L112.416 70.0917L113.144 70.0433C109.903 72.3574 106.724 74.544 103.484 76.8581L93.7912 83.579C93.5396 83.7741 93.1287 83.8151 92.8747 83.6948L84.5941 80.3229L85.4158 80.2408C81.7618 82.2807 78.0755 84.2267 74.4214 86.2666L63.3947 92.1985C63.1108 92.2996 62.9215 92.3671 62.6676 92.2468L56.9886 89.95L57.5888 89.8415L35.4407 101.739C35.1891 101.934 34.8082 101.754 34.6166 101.506L34.5842 101.412L24.3616 70.8058L13.9497 40.2672C13.9174 40.1734 14.0121 40.1396 14.0121 40.1396L35.6799 27.4648C35.9638 27.3637 36.1531 27.2962 36.4071 27.4165L42.1484 29.5857L41.3266 29.6678C48.7916 25.4268 56.1319 21.4409 63.44 17.3612C63.6916 17.1661 64.0402 17.2526 64.2618 17.2791L72.5425 20.651L71.626 20.7668L91.1701 7.47891C91.4217 7.28387 91.8326 7.24282 92.1811 7.32936L97.9224 9.4986L96.9113 9.64815L123.348 -3.98853C123.538 -4.05599 123.759 -4.02958 123.951 -3.78173L123.983 -3.68787L124.209 -3.03084L145.001 57.9525ZM144.779 57.9261L123.577 -3.01619L124.406 -2.15236L97.9688 11.4843C97.6849 11.5855 97.3686 11.5928 97.147 11.5664L91.4057 9.39719L92.4168 9.24763L72.8728 22.5355C72.6212 22.7306 72.2103 22.7716 71.9563 22.6513L63.6756 19.2794L64.4974 19.1973C57.1571 23.1832 49.849 27.2629 42.3817 31.1887C42.0977 31.2899 41.8138 31.391 41.5599 31.2708L35.9132 29.0678L36.6081 28.9256L14.2037 40.3875L14.266 40.2599L24.9618 70.6973L35.7523 101.101L34.8958 100.774L56.8199 88.5348C57.0092 88.4673 57.2931 88.3661 57.4524 88.5201L63.1614 90.5955L62.4342 90.6439L73.3963 84.5243C77.0503 82.4844 80.7044 80.4445 84.3907 78.4985C84.6747 78.3973 84.9909 78.39 85.2125 78.4164L93.4932 81.7883L92.5768 81.9042L102.523 75.3035C105.796 73.0832 109.102 70.9568 112.407 68.8304C112.564 68.6691 112.88 68.6618 113.134 68.782L118.876 70.9513L118.243 70.9659C126.846 66.6355 135.798 62.3915 144.779 57.9261Z" fill="#112E45"/>
<path d="M47.2403 59.7191C46.4747 58.5056 45.9031 57.227 45.3315 55.9484C44.76 54.6699 44.2854 53.3587 43.9079 52.0151C43.5304 50.6715 43.2499 49.2953 42.8724 47.9517C42.4949 46.6081 41.9233 45.3295 41.2547 44.0834C40.6831 42.8048 40.0145 41.5588 39.5399 40.2477C38.9684 38.9691 38.4938 37.658 38.0193 36.3469C37.1672 33.6921 36.3151 31.0374 35.8512 28.2526C35.8512 28.2526 35.8173 28.1589 35.9143 28.1264C35.9143 28.1264 36.0114 28.0939 36.0453 28.1875C37.4795 30.6471 38.6227 33.2043 39.5718 35.8265C40.0463 37.1376 40.5209 38.4487 40.8984 39.7923C41.3729 41.1034 41.7504 42.4471 42.0309 43.8232C42.4084 45.1669 42.786 46.5105 43.2605 47.8216C43.7351 49.1327 44.5007 50.3462 45.0723 51.6248C45.6439 52.9034 46.0214 54.247 46.4959 55.5581C46.8734 56.9018 47.2509 58.2454 47.4344 59.6541C47.3374 59.6866 47.3713 59.7803 47.2403 59.7191C47.2403 59.7191 47.2742 59.8128 47.2403 59.7191Z" fill="#112E45"/>
<path d="M45.088 39.631L50.0658 52.4555L54.9466 65.3125C56.6058 69.5873 58.2651 73.8622 59.8273 78.1694C61.2925 82.5091 62.7577 86.8488 63.8347 91.3183C63.8347 91.3183 63.8687 91.4119 63.7716 91.4443C63.7716 91.4443 63.6746 91.4768 63.6406 91.3831C61.6903 87.2056 60.031 82.9307 58.2747 78.6883C56.6154 74.4135 55.2473 70.0414 53.7821 65.7017L49.2895 52.715L44.8939 39.6959C44.8939 39.6959 44.957 39.5698 45.088 39.631C45.088 39.631 45.054 39.5374 45.088 39.631Z" fill="#112E45"/>
<path d="M108.426 57.1641L103.721 45.0884L99.1128 32.9803C97.5559 28.9863 95.9649 24.8987 94.602 20.8398C93.2391 16.7808 91.9393 12.5959 90.8676 8.43962C90.8676 8.43962 90.8336 8.34599 90.9306 8.31354C90.9306 8.31354 91.0277 8.28109 91.0616 8.37473C92.9097 12.2714 94.5977 16.3266 96.1547 20.3206C97.7116 24.3146 99.0114 28.4996 100.374 32.5585L104.594 44.7964L108.717 57.0668C108.62 57.0992 108.654 57.1928 108.426 57.1641C108.426 57.1641 108.557 57.2253 108.426 57.1641Z" fill="#112E45"/>
<path d="M109.408 45.688C110.477 47.7444 111.45 49.8334 112.326 51.9549C113.202 54.0765 114.077 56.198 114.856 58.3521C115.635 60.5063 116.414 62.6604 116.998 64.8797C117.68 67.0664 118.265 69.2857 118.753 71.5375C117.683 69.4811 116.71 67.3921 115.834 65.2706C114.958 63.149 114.083 61.0275 113.304 58.8734C112.525 56.7192 111.746 54.5651 111.162 52.3458C110.48 50.1591 109.895 47.9399 109.408 45.688Z" fill="#112E45"/>
<path d="M68.9006 32.4149C66.215 33.3532 63.6636 34.9809 61.5342 37.1973C54.8938 44.3552 55.4386 55.418 62.6126 61.7456C67.5889 66.1067 74.4289 67.1874 80.3756 65.1095L68.9006 32.4149Z" fill="white"/>
<path d="M88.3216 68.4393C91.0073 67.5009 93.5587 65.8733 95.6881 63.6569C102.328 56.4989 101.784 45.4361 94.6096 39.1086C89.6333 34.7475 82.7934 33.6668 76.8466 35.7446L88.3216 68.4393Z" fill="white"/>
<path d="M88.724 68.5329L80.2271 65.118L68.4948 32.3235L76.9917 35.7384L88.724 68.5329Z" fill="white"/>
<path d="M86.6166 50.1388C85.3937 49.4101 84.0778 49.0296 82.7975 49.0575C82.4774 49.0644 82.0287 49.0112 81.6129 49.0517C80.5569 49.1061 79.438 49.2878 78.1905 49.4093L76.5487 44.7247C77.4104 44.4228 78.0862 44.8172 78.576 45.908L80.1024 44.742L85.177 42.9639C84.1646 40.6888 82.679 39.2106 80.6873 38.4357C79.8201 38.1084 78.7942 37.9418 77.7054 37.9026C76.7506 38.5527 75.8616 39.3901 75.0711 40.5087L74.677 39.3844L72.7483 38.4822L73.208 39.7939L73.996 42.0425C73.5228 42.8395 73.1454 43.6029 72.8965 44.4265C72.3247 44.9424 71.753 45.4583 71.4385 46.0945C70.6808 47.3067 70.5332 48.726 71.0257 50.1313C71.4197 51.2556 72.0353 52.0919 72.8397 52.5464C73.644 53.001 74.4784 53.2346 75.3758 53.341C75.6001 53.3676 75.8244 53.3941 76.1445 53.3872C76.7218 53.5005 77.3948 53.5803 78.1963 53.7202L79.7068 58.03C78.8396 57.7027 78.161 56.9937 77.7041 55.9966L76.9682 56.0441L73.5213 57.2518C74.1424 58.7173 75.1438 59.734 76.4925 60.2082C77.1354 60.5089 77.9042 60.5551 78.6729 60.6014C79.3487 60.9958 80.153 61.4503 81.0203 61.7776L81.8083 64.0262L83.8 64.8011L82.9463 62.3651C84.2293 62.6519 85.4796 62.8451 86.6642 62.8508C86.9815 62.5292 87.3316 62.3013 87.649 61.9798C88.8225 60.727 89.5473 59.4211 89.8235 58.062C90.0997 56.7029 90.0559 55.3507 89.5633 53.9454C88.8108 52.1051 87.8396 50.8675 86.6166 50.1388ZM76.623 49.5377C76.1743 49.4845 75.8214 49.3978 75.5314 49.1838C75.2414 48.9698 75.0471 48.7223 74.8829 48.2539C74.7187 47.7854 74.6503 47.2834 74.7433 46.9352C74.8034 46.4934 74.9922 46.1117 75.2767 45.6964L76.623 49.5377ZM82.6805 57.6193C82.396 58.0345 82.013 58.1687 81.4057 58.2763L79.8952 53.9665C80.6011 54.14 81.2112 54.347 81.6626 54.7149C82.2098 55.0491 82.4697 55.484 82.6995 56.1399C82.9923 56.6684 82.965 57.204 82.6805 57.6193Z" fill="#112E45"/>
<path d="M84.9474 58.2968C86.1402 62.2023 87.3669 66.2014 88.6567 70.0743C89.27 72.0738 89.7525 74.0124 90.6568 75.9141C91.464 77.8484 92.3345 79.6564 93.4327 81.4928C93.4665 81.5865 93.5635 81.5538 93.5635 81.5538C93.5635 81.5538 93.5634 81.5538 93.6266 81.4275C93.3042 79.3301 92.8217 77.3915 92.2084 75.392C91.595 73.3924 90.7246 71.5844 89.9173 69.6501C88.4336 65.8425 86.8191 61.9739 85.2383 58.1989C85.0444 58.2642 85.0106 58.1705 84.9474 58.2968C84.9474 58.2968 84.9136 58.2031 84.9474 58.2968Z" fill="#112E45"/>
<path d="M73.8731 46.9579C72.3398 42.1163 70.8066 37.2747 69.1764 32.4657C68.4267 30.0917 67.7401 27.5915 66.6994 25.3153C65.7558 23.0065 64.6812 20.6366 63.4465 18.4255C63.4126 18.3318 63.4127 18.3318 63.3156 18.3644C63.3156 18.3644 63.2187 18.397 63.2525 18.4906C63.7112 20.9624 64.3978 23.4626 65.1474 25.8365C65.8971 28.2105 66.9717 30.5804 67.9154 32.8892C69.7396 37.6331 71.6608 42.3444 73.5821 47.0557C73.6791 47.0231 73.8099 47.0842 73.8731 46.9579C73.8731 46.9579 73.8099 47.0842 73.8731 46.9579Z" fill="#112E45"/>
<path d="M9.29993 35.2596C8.1144 34.311 6.80108 33.3023 5.61556 32.3537C5.19954 32.0799 5.6101 31.7241 5.8956 31.623C6.27626 31.4883 6.97504 31.3461 7.2959 31.6536C8.57659 32.5685 9.79474 33.6108 11.0754 34.5258C11.4915 34.7995 11.0809 35.1554 10.7002 35.2902C10.3522 35.5186 9.62078 35.567 9.29993 35.2596Z" fill="#112E45"/>
<path d="M7.74949 37.9546C6.32803 37.8305 4.81212 37.7402 3.39066 37.6161C3.07504 37.6236 2.47374 37.417 2.66032 37.034C2.84691 36.6509 3.54035 36.5083 3.88823 36.5947C5.30969 36.7188 6.8256 36.8092 8.24705 36.9333C8.43596 36.8657 8.68939 36.9859 8.8161 37.046C8.94281 37.1061 9.00733 37.2939 8.94513 37.4215C8.7908 37.8984 8.15956 37.9134 7.74949 37.9546Z" fill="#112E45"/>
<path d="M7.49355 42.1828C6.42621 42.4609 5.453 42.7052 4.38566 42.9833C4.1033 43.0849 3.88306 43.0584 3.63084 42.9379C3.53672 42.9717 3.19037 42.885 3.15838 42.7908C2.9363 42.4482 3.59516 42.2113 3.87752 42.1097C4.81875 41.7713 5.88608 41.4932 6.85929 41.2489C7.14166 41.1474 7.3619 41.1738 7.70824 41.2606C7.83435 41.3208 8.1807 41.4076 8.21269 41.5017C8.37264 41.9723 7.8079 42.1754 7.49355 42.1828Z" fill="#112E45"/>
<path d="M146.282 63.4336C146.858 63.8611 147.529 64.2549 148.137 64.7762C148.425 64.9899 148.713 65.2037 149.096 65.3837C149.384 65.5975 149.862 65.7438 150.088 66.085C150.281 66.3325 149.838 66.5947 149.648 66.6621C149.267 66.7969 148.855 66.838 148.471 66.6579C148.088 66.4778 147.705 66.2978 147.385 65.9903C147.097 65.7766 146.714 65.5965 146.426 65.3827C145.85 64.9552 145.179 64.5614 144.57 64.0402C144.155 63.7664 144.565 63.4105 144.85 63.3094C145.23 63.1746 145.866 63.1598 146.282 63.4336Z" fill="#112E45"/>
<path d="M149.911 59.1372C152.043 60.0638 154.175 60.9904 156.369 61.7896C156.497 61.8496 156.656 62.0034 156.689 62.0971C156.721 62.1909 156.564 62.3521 156.407 62.5134C156.06 62.7421 155.426 62.7569 155.077 62.6706C152.882 61.8715 150.688 61.0724 148.523 60.052C148.396 59.992 148.236 59.8382 148.204 59.7444C148.139 59.5569 148.328 59.4894 148.485 59.3282C148.895 58.972 149.496 58.8634 149.911 59.1372Z" fill="#112E45"/>
<path d="M149.915 55.1014C150.732 55.0191 151.644 54.9029 152.556 54.7867C152.65 54.7529 152.744 54.7191 152.87 54.7794C153.058 54.7117 152.776 54.8132 152.964 54.7456C153.153 54.6779 153.467 54.6706 153.655 54.6029C154.064 54.5617 154.567 54.4867 154.944 54.3514C155.258 54.3441 155.949 54.2014 156.172 54.5441C156.394 54.8867 155.735 55.1235 155.547 55.1912C153.694 55.6456 151.871 55.8779 150.015 56.0162C149.701 56.0235 149.072 56.0382 149.038 55.6279C148.909 55.2514 149.601 55.1088 149.915 55.1014Z" fill="#112E45"/>
</svg>
