<svg width="40" height="40" viewBox="0 0 40 40" fill="none" xmlns="http://www.w3.org/2000/svg">
<path d="M5.45226 15.3394C6.63619 13.0367 7.84765 10.7521 9.11418 8.50376C9.71991 7.41586 10.3394 6.34609 10.9589 5.27632C11.6472 4.11589 12.5145 2.95546 12.9275 1.57746C13.2717 0.417029 11.8124 0 11.2893 0C10.1467 0 8.99028 0.471424 8.08168 1.4324C7.17309 2.39338 6.48475 3.80765 5.76889 5.02247C5.12186 6.12851 4.48859 7.23454 3.85533 8.3587C2.60257 10.607 1.37734 12.8735 0.207172 15.1943C-0.522459 16.6086 0.840437 17.3701 1.73527 17.3701C2.98803 17.3701 4.69509 16.8081 5.45226 15.3394Z" fill="#112E45"/>
<path d="M19.3431 25.8016C24.0238 19.8363 28.8972 14.1066 33.8944 8.57648C34.1835 8.25011 34.5139 7.65177 34.4038 7.10782C34.2937 6.56387 33.7705 6.27376 33.3988 6.16497C32.1598 5.80234 30.7006 6.43695 29.7369 7.45232C24.6433 12.8918 19.7423 18.6396 15.0204 24.6411C14.7313 25.0038 14.3596 25.584 14.4835 26.1823C14.6074 26.7807 15.1443 27.0708 15.5298 27.1615C16.755 27.4516 18.4207 26.9801 19.3431 25.8197V25.8016Z" fill="#112E45"/>
<path d="M23.0877 39.7445C25.4556 38.8923 27.8372 38.1307 30.2326 37.478C30.5079 37.4055 30.7833 37.3329 31.0586 37.2604C31.6919 37.0972 30.8521 37.3148 31.4441 37.1516C32.0911 36.9884 32.7381 36.8253 33.3852 36.6802C34.5966 36.3901 35.8081 36.1181 37.0195 35.8643C37.9832 35.6467 39.7453 35.0484 39.9794 33.5253C40.2134 32.0022 38.3962 31.9478 37.7216 32.0566C32.5316 32.9269 27.3829 34.3956 22.3443 36.2088C21.5596 36.4808 19.7149 37.4599 20.0178 38.9285C20.3206 40.3972 22.3305 40.0164 23.0739 39.7445H23.0877Z" fill="#112E45"/>
</svg>
