<svg width="20" height="20" viewBox="0 0 20 20" fill="none" xmlns="http://www.w3.org/2000/svg">
<path fill-rule="evenodd" clip-rule="evenodd" d="M2.42468 8.93588C3.36032 8.6147 4.3449 8.18783 5.10417 7.56982C6.00593 6.83577 6.37267 5.89038 6.61894 4.89524C6.93513 3.61673 7.06146 2.25481 7.44486 0.974231C7.58682 0.498677 7.86001 0.318916 7.97723 0.239139C8.27352 0.0376247 8.57301 -0.0162401 8.85478 0.00396316C9.1887 0.0272746 9.6474 0.149004 9.94906 0.688276C9.99208 0.765463 10.048 0.883062 10.0856 1.04417C10.113 1.16228 10.1308 1.53163 10.1598 1.68393C10.2324 2.05899 10.2932 2.43406 10.3502 2.81119C10.54 4.06638 10.6492 5.13247 11.2487 6.28561C12.0623 7.85111 12.8775 8.80895 13.9831 9.23322C15.0521 9.6435 16.3302 9.56633 17.9633 9.24464C18.1187 9.20837 18.2725 9.17728 18.4246 9.1519C19.1446 9.03068 19.8329 9.48603 19.9744 10.1771C20.1158 10.8676 19.6582 11.5405 18.9446 11.6923C18.7957 11.7239 18.6489 11.754 18.5037 11.7814C16.2969 12.3077 13.7421 14.1861 12.2575 15.8309C11.7999 16.3381 11.1299 17.7559 10.4464 18.6604C9.94206 19.3276 9.3753 19.7674 8.89941 19.9228C8.58054 20.0275 8.31169 20.0114 8.08961 19.9586C7.76698 19.8819 7.4992 19.7135 7.29379 19.4457C7.18194 19.2991 7.07814 19.1028 7.02867 18.8521C7.00501 18.7313 7.00234 18.4247 7.00287 18.2859C6.8636 17.8243 6.69314 17.3736 6.56893 16.9079C6.27264 15.7967 5.69135 15.0932 5.00092 14.1639C4.35511 13.2941 3.66147 12.7476 2.64464 12.3114C2.51236 12.2803 1.44497 12.0285 1.06803 11.884C0.5174 11.6721 0.254977 11.3173 0.1598 11.1261C-0.00205505 10.8018 -0.0187098 10.5185 0.0135536 10.2823C0.061411 9.93361 0.223804 9.63523 0.512024 9.39435C0.690548 9.24464 0.957261 9.09905 1.31431 9.02808C1.59016 8.97265 2.32197 8.94055 2.42468 8.93588ZM8.68647 7.12483C8.73595 7.23102 8.78865 7.33775 8.84457 7.4455C10.0362 9.73831 11.3686 11.0184 12.9883 11.6395L13.0426 11.6597C11.9591 12.4347 10.9782 13.3008 10.2287 14.1312C9.92 14.4731 9.51135 15.1834 9.06988 15.9117C8.66874 14.6555 8.01271 13.7676 7.18785 12.6564C6.55764 11.8084 5.89731 11.1702 5.08589 10.6501C5.71556 10.3387 6.31619 9.97403 6.8394 9.5482C7.71051 8.83902 8.28641 8.0174 8.68647 7.12483Z" fill="#112E45"/>
</svg>
