<svg xmlns="http://www.w3.org/2000/svg" xmlns:xlink="http://www.w3.org/1999/xlink" version="1.1" x="0px" y="0px" viewBox="0 0 66 82.5" enable-background="new 0 0 66 66" xml:space="preserve"><g><g><path d="M42.3,25.6H11.5l-5.8,4.9v11.9l5.8,4.9h30.9l5.9-4.9V30.4L42.3,25.6z M14.2,39.5c-1.7,0-3.1-1.4-3.1-3.1    c0-1.7,1.4-3.2,3.1-3.2s3.1,1.4,3.1,3.2C17.3,38.1,15.9,39.5,14.2,39.5z M27,43c-3.6,0-6.6-3-6.6-6.6c0-3.6,3-6.6,6.6-6.6    c3.6,0,6.6,3,6.6,6.6C33.5,40,30.6,43,27,43z M39.7,39.5c-1.7,0-3.2-1.4-3.2-3.1c0-1.7,1.4-3.2,3.2-3.2c1.7,0,3.1,1.4,3.1,3.2    C42.9,38.1,41.5,39.5,39.7,39.5z"/></g><g><path d="M52.2,20.9H1.8c-0.4,0-0.8,0.3-0.8,0.8v29.4c0,0.4,0.3,0.8,0.8,0.8h50.4c0.4,0,0.8-0.3,0.8-0.8V21.7    C52.9,21.2,52.6,20.9,52.2,20.9z M49.8,42.7c0,0.2-0.1,0.4-0.3,0.6l-6.4,5.3c-0.1,0.1-0.3,0.2-0.5,0.2H11.2    c-0.2,0-0.3-0.1-0.5-0.2l-6.3-5.3c-0.2-0.1-0.3-0.3-0.3-0.6V30.1c0-0.2,0.1-0.4,0.3-0.6l6.3-5.3c0.1-0.1,0.3-0.2,0.5-0.2h31.4    c0.2,0,0.3,0.1,0.5,0.2l6.4,5.3c0.2,0.1,0.3,0.4,0.3,0.6V42.7z"/></g><g><path d="M52.4,14.8l0.7,4.8c-0.3-0.1-0.6-0.2-0.9-0.2H12.8l38.8-5.2C52,14.1,52.4,14.4,52.4,14.8z"/></g><g><path d="M56.4,44c0,0.2,0,0.4-0.1,0.5c-0.1,0.2-0.3,0.3-0.5,0.3L54.4,45V29.3L56.4,44z"/></g><g><path d="M65,33c0,17.5-14.2,31.7-31.7,31.7c-7.6,0-15-2.8-20.8-7.8c-0.3-0.3-0.4-0.8-0.1-1.1c0.3-0.3,0.7-0.3,1.1-0.1    c5.5,4.8,12.5,7.4,19.8,7.4C50,63.2,63.5,49.6,63.5,33C63.5,16.4,50,2.8,33.3,2.8c-6.2,0-12.1,1.8-17.2,5.4l4.1,0.6    c0.4,0.1,0.7,0.4,0.6,0.9c0,0.4-0.4,0.6-0.7,0.6c0,0-0.1,0-0.1,0l-5.9-0.9c-0.4-0.1-0.7-0.4-0.6-0.8l0.9-5.9    c0.1-0.4,0.4-0.7,0.9-0.6s0.7,0.4,0.6,0.9L15.2,7c5.3-3.7,11.5-5.7,18.1-5.7C50.8,1.3,65,15.5,65,33z"/></g><g><path d="M26.7,40.7v-0.8c-0.9-0.1-1.8-0.5-2.5-1.1l0.8-0.9c0.6,0.5,1.2,0.8,1.8,0.9v-2c-0.8-0.2-1.4-0.4-1.7-0.7    c-0.4-0.3-0.5-0.8-0.5-1.4c0-0.6,0.2-1.1,0.6-1.5c0.4-0.4,1-0.6,1.6-0.6v-0.5h0.7v0.5c0.8,0.1,1.5,0.3,2.2,0.8l-0.7,1    c-0.5-0.3-1-0.5-1.5-0.6v1.9h0c0.8,0.2,1.4,0.4,1.8,0.8c0.4,0.3,0.6,0.8,0.6,1.4c0,0.6-0.2,1.1-0.6,1.5c-0.4,0.4-1,0.6-1.7,0.6    v0.7H26.7z M26,34c-0.2,0.2-0.3,0.3-0.3,0.6c0,0.2,0.1,0.4,0.2,0.5c0.1,0.1,0.4,0.3,0.8,0.4v-1.8C26.4,33.7,26.2,33.8,26,34z     M28.2,38.5c0.2-0.2,0.3-0.4,0.3-0.6c0-0.2-0.1-0.4-0.2-0.6c-0.2-0.1-0.4-0.3-0.8-0.4v1.9C27.7,38.8,28,38.7,28.2,38.5z"/></g></g></svg>