<svg xmlns="http://www.w3.org/2000/svg" xmlns:xlink="http://www.w3.org/1999/xlink" version="1.1" x="0px" y="0px" viewBox="0 0 100 125" enable-background="new 0 0 100 100" xml:space="preserve"><path d="M87.628,30.278L63.881,6.52c-2.027-2.026-3.617-2.026-5.645,0L24.774,39.998h5.644l23.631-23.644  c4.35,2.412,9.672,2.412,14.02,0.001l9.73,9.734c-2.392,4.313-2.406,9.58-0.06,13.908h5.817l4.071-4.074  C89.654,33.897,89.654,32.305,87.628,30.278z"/><path d="M69.791,39.999c1.665-4.439,0.723-9.635-2.848-13.205c-4.87-4.875-12.767-4.877-17.636,0  c-3.57,3.571-4.513,8.767-2.849,13.205h13.138v-0.001c0.495-0.278,1.024-0.636,1.463-1.072c0.517-0.518,1.265-1.501,0.479-2.286  c-0.218-0.216-0.724-0.721-2.69,0.33c-2.64,1.404-4.761,1.333-6.306-0.214c-1.274-1.274-1.808-3.46-0.366-5.604l-1.201-1.203  c-0.139-0.137-0.138-0.275,0-0.413l1.074-1.075c0.137-0.14,0.276-0.14,0.412,0l1.145,1.145c1.305-1.074,2.815-1.698,3.429-1.923  c0.151-0.058,0.307-0.002,0.364,0.182l0.754,2.367c0.059,0.187-0.035,0.322-0.188,0.38c-0.563,0.218-1.869,0.787-2.771,1.692  c-0.518,0.515-1.267,1.498-0.481,2.283c0.218,0.217,0.722,0.723,2.69-0.327c2.64-1.406,4.76-1.336,6.307,0.211  c1.26,1.261,1.789,3.409,0.413,5.528H69.791z"/><path d="M66.857,82.384c-7.869,0-12.758-4.89-12.758-12.759s4.889-12.758,12.758-12.758h13.468c0.303,0,0.594,0.015,0.882,0.029  v-4.142c0-6.105-2.396-8.505-8.505-8.505H23.691c-7.143,0-7.143-8.146-0.389-8.146h1.82l4.536-4.539h-3.526  c-10.996,0-15.281,3.948-15.281,12.686v42.244c0,6.104,2.398,8.505,8.505,8.505h53.346c6.106,0,8.505-2.398,8.505-8.505v-4.142  c-0.288,0.016-0.579,0.03-0.882,0.03H66.857z"/><path d="M80.325,60.411H66.857c-6.614,0-9.213,4.126-9.213,9.214c0,5.089,2.599,9.215,9.213,9.215h13.468  c4.071,0,5.67-1.6,5.67-5.671v-7.087C85.995,62.011,84.396,60.411,80.325,60.411z M68.275,73.878c-2.35,0-4.252-1.903-4.252-4.252  s1.902-4.253,4.252-4.253c2.349,0,4.252,1.904,4.252,4.253S70.624,73.878,68.275,73.878z"/></svg>